<svg xmlns="http://www.w3.org/2000/svg">

<!--  close  -->
    <symbol id="close" viewBox="0 0 329.269 329" xmlns="http://www.w3.org/2000/svg">
        <path d="M194.8 164.77L323.013 36.555c8.343-8.34 8.343-21.825 0-30.164-8.34-8.34-21.825-8.34-30.164 0L164.633 134.605 36.422 6.391c-8.344-8.34-21.824-8.34-30.164 0-8.344 8.34-8.344 21.824 0 30.164l128.21 128.215L6.259 292.984c-8.344 8.34-8.344 21.825 0 30.164a21.266 21.266 0 0 0 15.082 6.25c5.46 0 10.922-2.09 15.082-6.25l128.21-128.214 128.216 128.214a21.273 21.273 0 0 0 15.082 6.25c5.46 0 10.922-2.09 15.082-6.25 8.343-8.34 8.343-21.824 0-30.164zm0 0"/>
    </symbol>

<!--  arrow  -->
    <symbol id="arrow" viewBox="0 0 492.004 492.004" xmlns="http://www.w3.org/2000/svg">
        <path d="M382.678 226.804L163.73 7.86C158.666 2.792 151.906 0 144.698 0s-13.968 2.792-19.032 7.86l-16.124 16.12c-10.492 10.504-10.492 27.576 0 38.064L293.398 245.9l-184.06 184.06c-5.064 5.068-7.86 11.824-7.86 19.028 0 7.212 2.796 13.968 7.86 19.04l16.124 16.116c5.068 5.068 11.824 7.86 19.032 7.86s13.968-2.792 19.032-7.86L382.678 265c5.076-5.084 7.864-11.872 7.848-19.088.016-7.244-2.772-14.028-7.848-19.108z"/>
    </symbol>
</svg>